<svg id="svgcontent" width="955" height="626" x="0" y="0" overflow="visible" xmlns="http://www.w3.org/2000/svg" xmlns:se="http://imprintnext.com" xmlns:xlink="http://www.w3.org/1999/xlink" viewBox="0 0 955 626"><!-- Made with luv in USA by ImprintNext - https://imprintnext.com--><defs><clipPath id="bound_0" xe_id="bound_0"><rect id="xe_ld2pg9" x="134.64253859348207" y="71.30000000000001" pointer-events="all" width="685.7149228130359" height="483.4"></rect></clipPath></defs><g id="bounds" display="none"><path d="M134.64253859348207 71.30000000000001 L820.3574614065179 71.30000000000001 L820.3574614065179 554.7 L134.64253859348207 554.7  Z" x="134.64253859348207" y="71.30000000000001" width="685.7149228130359" height="483.4" aWidth="8.27" aHeight="5.83" fill="none" stroke="#006400" isBleed="0" safeVal="0" cropVal="0" stroke-miterlimit="null" stroke-width="1" pointer-events="all" id="bound_0" xe_id="bound_0"></path></g><g class="layer" id="Layer_0" xe_id="Layer_0" style="pointer-events:all" clip-path="url(#bound_0)"><title>Layer_0</title><g id="background" type="bg_area_0" pointer-events="none" style="color-interpolation-filters:sRGB;pointer-events: none;"></g><g id="xe_k49dmq" type="image" pointer-events="bounding-box" transform="rotate(19.2683, 465.278, 307.444)" xe-props="&amp;#35;&amp;#103;&amp;#76;&amp;#73;&amp;#65;&amp;#101;&amp;#122;&amp;#127;&amp;#26;&amp;#89;&amp;#92;&amp;#97;&amp;#63;&amp;#32;&amp;#26;&amp;#28;&amp;#19;&amp;#111;&amp;#58;&amp;#47;&amp;#93;&amp;#83;&amp;#69;&amp;#84;&amp;#49;&amp;#49;&amp;#84;&amp;#85;&amp;#19;&amp;#58;&amp;#122;&amp;#103;&amp;#20;&amp;#18;&amp;#88;&amp;#115;&amp;#12;&amp;#32;&amp;#85;&amp;#64;&amp;#93;&amp;#97;&amp;#44;&amp;#32;&amp;#113;&amp;#93;&amp;#86;&amp;#34;&amp;#98;&amp;#35;&amp;#89;&amp;#92;&amp;#66;&amp;#101;&amp;#116;&amp;#103;&amp;#91;&amp;#95;&amp;#95;&amp;#116;&amp;#61;&amp;#43;&amp;#76;&amp;#100;&amp;#72;&amp;#112;&amp;#61;&amp;#103;&amp;#2;&amp;#18;&amp;#88;&amp;#109;&amp;#57;&amp;#34;&amp;#93;&amp;#31;&amp;#66;&amp;#118;&amp;#63;&amp;#110;&amp;#64;&amp;#93;&amp;#93;&amp;#34;&amp;#116;&amp;#103;&amp;#81;&amp;#93;&amp;#86;&amp;#69;&amp;#32;&amp;#49;&amp;#93;&amp;#94;&amp;#66;&amp;#105;&amp;#55;&amp;#43;&amp;#26;&amp;#10;&amp;#19;&amp;#115;&amp;#46;&amp;#34;&amp;#26;&amp;#28;&amp;#19;&amp;#111;&amp;#54;&amp;#32;&amp;#123;&amp;#95;&amp;#93;&amp;#111;&amp;#42;&amp;#3;&amp;#81;&amp;#92;&amp;#93;&amp;#34;&amp;#98;&amp;#103;&amp;#27;&amp;#118;&amp;#119;&amp;#48;&amp;#104;&amp;#117;&amp;#8;&amp;#18;&amp;#29;&amp;#34;&amp;#49;&amp;#40;&amp;#95;&amp;#100;&amp;#72;&amp;#112;&amp;#61;&amp;#103;&amp;#2;&amp;#18;&amp;#66;&amp;#118;&amp;#63;&amp;#103;&amp;#20;&amp;#18;&amp;#88;&amp;#109;&amp;#63;&amp;#22;&amp;#93;&amp;#92;&amp;#84;&amp;#99;&amp;#44;&amp;#44;&amp;#87;&amp;#94;&amp;#101;&amp;#121;&amp;#40;&amp;#32;&amp;#26;&amp;#10;&amp;#19;&amp;#117;&amp;#40;&amp;#41;&amp;#87;&amp;#81;&amp;#85;&amp;#34;&amp;#116;&amp;#103;&amp;#84;&amp;#95;&amp;#82;&amp;#107;&amp;#122;&amp;#127;&amp;#67;&amp;#18;&amp;#82;&amp;#111;&amp;#52;&amp;#42;&amp;#74;&amp;#117;&amp;#85;&amp;#105;&amp;#44;&amp;#103;&amp;#2;&amp;#86;&amp;#80;&amp;#108;&amp;#43;&amp;#32;&amp;#20;&amp;#18;&amp;#85;&amp;#101;&amp;#52;&amp;#32;&amp;#76;&amp;#85;&amp;#19;&amp;#58;&amp;#62;&amp;#36;&amp;#84;&amp;#67;&amp;#84;&amp;#44;&amp;#122;&amp;#40;&amp;#87;&amp;#70;&amp;#84;&amp;#34;&amp;#98;&amp;#35;&amp;#89;&amp;#92;&amp;#66;&amp;#101;&amp;#116;&amp;#103;&amp;#74;&amp;#95;&amp;#69;&amp;#97;&amp;#44;&amp;#32;&amp;#26;&amp;#10;&amp;#87;&amp;#97;&amp;#52;&amp;#54;&amp;#93;&amp;#28;&amp;#19;&amp;#114;&amp;#61;&amp;#54;&amp;#81;&amp;#74;&amp;#84;&amp;#34;&amp;#98;&amp;#35;&amp;#89;&amp;#92;&amp;#66;&amp;#101;&amp;#116;&amp;#103;&amp;#93;&amp;#84;&amp;#88;&amp;#116;&amp;#122;&amp;#127;&amp;#94;&amp;#81;&amp;#93;&amp;#115;&amp;#61;&amp;#56;&amp;#20;&amp;#18;&amp;#82;&amp;#111;&amp;#52;&amp;#42;&amp;#74;&amp;#67;&amp;#19;&amp;#58;&amp;#3;&amp;#24;&amp;#20;&amp;#18;&amp;#88;&amp;#109;&amp;#57;&amp;#34;&amp;#93;&amp;#103;&amp;#80;&amp;#114;&amp;#54;&amp;#44;&amp;#86;&amp;#87;&amp;#19;&amp;#58;&amp;#62;&amp;#36;&amp;#84;&amp;#67;&amp;#84;&amp;#44;&amp;#122;&amp;#48;&amp;#72;&amp;#92;&amp;#94;&amp;#97;&amp;#60;&amp;#32;&amp;#92;&amp;#121;&amp;#92;&amp;#103;&amp;#122;&amp;#127;&amp;#26;&amp;#88;&amp;#69;&amp;#116;&amp;#40;&amp;#54;&amp;#2;&amp;#31;&amp;#30;&amp;#105;&amp;#53;&amp;#53;&amp;#74;&amp;#89;&amp;#95;&amp;#116;&amp;#54;&amp;#32;&amp;#64;&amp;#68;&amp;#31;&amp;#105;&amp;#55;&amp;#106;&amp;#92;&amp;#85;&amp;#66;&amp;#105;&amp;#63;&amp;#43;&amp;#93;&amp;#66;&amp;#30;&amp;#97;&amp;#43;&amp;#54;&amp;#93;&amp;#68;&amp;#66;&amp;#47;&amp;#58;&amp;#55;&amp;#87;&amp;#71;&amp;#66;&amp;#101;&amp;#42;&amp;#26;&amp;#81;&amp;#93;&amp;#80;&amp;#103;&amp;#61;&amp;#54;&amp;#23;&amp;#2;&amp;#1;&amp;#50;&amp;#108;&amp;#116;&amp;#8;&amp;#1;&amp;#7;&amp;#48;&amp;#111;&amp;#113;&amp;#14;&amp;#0;&amp;#6;&amp;#52;&amp;#106;&amp;#117;&amp;#15;&amp;#30;&amp;#66;&amp;#118;&amp;#63;&amp;#103;&amp;#69;"><g id="xe_20c1ha"><g id="SVGRepo_bgCarrier" stroke-width="0" transform="matrix(1.29918, 0, 0, 1.29918, 185.233, 121.42)"></g><g id="SVGRepo_tracerCarrier" stroke-linecap="round" stroke-linejoin="round" transform="matrix(1.29918, 0, 0, 1.29918, 185.233, 121.42)"></g><g id="SVGRepo_iconCarrier" transform="matrix(1.29918, 0, 0, 1.29918, 185.233, 121.42)"><g id="xe_13347s"><g id="xe_8sqct9"><path d="M335.4679351730347,237.97052308273317 C288.34393517303465,297.33452308273314 195.93193517303467,282.64652308273315 174.51193517303466,208.59452308273316 C173.28793517303467,204.92252308273316 172.67593517303467,200.63852308273314 172.06393517303468,196.96652308273315 C221.63593517303468,185.95052308273316 269.98393517303464,149.84252308273315 274.26793517303463,106.39052308273315 C277.93993517303466,67.22252308273315 238.15993517303465,55.59452308273316 211.84393517303468,77.62652308273316 C180.63193517303466,103.94252308273316 158.59993517303468,142.49852308273316 156.76393517303467,183.50152308273314 C124.93993517303466,187.78552308273316 93.72793517303467,179.21752308273315 76.59193517303467,148.00552308273316 C47.82793517303467,95.37452308273315 86.38393517303467,24.381523082733153 137.7919351730347,3.5735230827331534 C143.29993517303467,1.737523082733155 140.85193517303466,-6.8304769172668465 135.34393517303465,-4.994476917266846 C64.35193517303466,15.202523082733151 27.63193517303467,114.34652308273314 75.97993517303468,173.09752308273315 C94.95193517303467,195.74252308273316 125.55193517303468,203.08552308273315 157.37593517303466,199.41352308273315 C161.65993517303468,241.02952308273314 194.09593517303466,274.07752308273314 232.65093517303467,286.92952308273317 C277.32693517303466,301.61752308273316 318.3309351730347,280.1985230827332 344.64693517303465,245.31352308273313 C348.9319351730347,239.80552308273315 339.7509351730347,233.07452308273315 335.4679351730347,237.97052308273317 zM198.37993517303468,114.34652308273314 C208.17193517303465,100.88252308273316 221.02393517303466,85.58252308273316 237.54793517303466,80.07452308273315 C253.45893517303466,74.56652308273316 258.9679351730347,96.59852308273315 259.57893517303467,106.39052308273315 C260.19093517303463,118.63052308273316 251.62293517303465,129.64652308273315 243.66693517303466,138.21452308273317 C227.14393517303466,157.18552308273314 199.60393517303467,173.71052308273315 171.45193517303466,181.05352308273316 C173.28793517303467,157.18552308273314 184.91593517303465,133.93052308273315 198.37993517303468,114.34652308273314 z" id="xe_tkvuov"></path><path d="M369.7389351730347,215.32652308273316 C352.60293517303467,215.32652308273316 334.8549351730347,216.55052308273315 318.3309351730347,220.83452308273314 C311.5999351730347,222.67052308273315 314.65893517303465,231.85052308273316 321.39193517303465,230.62652308273314 C334.85593517303465,228.17852308273316 348.9319351730347,228.79052308273316 362.3959351730347,229.40252308273315 C361.78393517303465,237.35752308273317 361.1719351730347,245.92552308273315 359.9479351730347,253.88152308273317 C358.72393517303465,260.0015230827332 354.43993517303466,269.1815230827332 358.1119351730347,275.3015230827331 C359.9479351730347,278.36252308273316 363.0079351730347,278.36252308273316 366.06793517303464,277.13752308273314 C373.4119351730347,274.07752308273314 373.4119351730347,261.22552308273316 374.6359351730347,254.49352308273313 C376.4719351730347,243.47652308273314 377.0829351730347,233.07352308273315 377.0829351730347,222.05652308273315 C377.0829351730347,218.38652308273316 373.41093517303466,215.32652308273316 369.7389351730347,215.32652308273316 z" id="xe_rkrv22"></path></g></g></g></g></g></g><g id="borderG" clip-path="url(#bound_0)" display="none"><rect id="border" x="134.64253859348207" y="71.30000000000001" width="685.7149228130359" height="483.4" aWidth="8.27" aHeight="5.83" fill="none" stroke-width="1" stroke="#000" pointer-events="none"></rect></g></svg>